%TF.GenerationSoftware,KiCad,Pcbnew,9.0.2*%
%TF.CreationDate,2025-06-30T20:41:04-04:00*%
%TF.ProjectId,Hackpad,4861636b-7061-4642-9e6b-696361645f70,rev?*%
%TF.SameCoordinates,Original*%
%TF.FileFunction,Copper,L1,Top*%
%TF.FilePolarity,Positive*%
%FSLAX46Y46*%
G04 Gerber Fmt 4.6, Leading zero omitted, Abs format (unit mm)*
G04 Created by KiCad (PCBNEW 9.0.2) date 2025-06-30 20:41:04*
%MOMM*%
%LPD*%
G01*
G04 APERTURE LIST*
%TA.AperFunction,SMDPad,CuDef*%
%ADD10R,1.600000X0.850000*%
%TD*%
%TA.AperFunction,ComponentPad*%
%ADD11C,1.600000*%
%TD*%
%TA.AperFunction,ComponentPad*%
%ADD12O,1.600000X1.600000*%
%TD*%
%TA.AperFunction,ComponentPad*%
%ADD13C,2.200000*%
%TD*%
%TA.AperFunction,ComponentPad*%
%ADD14C,1.524000*%
%TD*%
%TA.AperFunction,ViaPad*%
%ADD15C,0.600000*%
%TD*%
%TA.AperFunction,Conductor*%
%ADD16C,0.200000*%
%TD*%
G04 APERTURE END LIST*
D10*
%TO.P,D2,1,DOUT*%
%TO.N,Net-(D1-DIN)*%
X206385000Y-88070000D03*
%TO.P,D2,2,VSS*%
%TO.N,GND*%
X206385000Y-86320000D03*
%TO.P,D2,3,DIN*%
%TO.N,Net-(D2-DIN)*%
X202885000Y-86320000D03*
%TO.P,D2,4,VDD*%
%TO.N,+5V*%
X202885000Y-88070000D03*
%TD*%
D11*
%TO.P,C1,1*%
%TO.N,GND*%
X163600000Y-83250000D03*
D12*
%TO.P,C1,2*%
%TO.N,+5V*%
X171100000Y-83250000D03*
%TD*%
D13*
%TO.P,SW1,1,1*%
%TO.N,GND*%
X188475000Y-94935000D03*
%TO.P,SW1,2,2*%
%TO.N,Net-(U1-GPIO2{slash}SCK)*%
X182125000Y-97475000D03*
%TD*%
%TO.P,SW3,1,1*%
%TO.N,GND*%
X188470000Y-75695000D03*
%TO.P,SW3,2,2*%
%TO.N,Net-(U1-GPIO3{slash}MOSI)*%
X182120000Y-78235000D03*
%TD*%
D11*
%TO.P,C2,1*%
%TO.N,GND*%
X208150000Y-83500000D03*
D12*
%TO.P,C2,2*%
%TO.N,+5V*%
X200650000Y-83500000D03*
%TD*%
D10*
%TO.P,D1,1,DOUT*%
%TO.N,unconnected-(D1-DOUT-Pad1)*%
X165685000Y-86345000D03*
%TO.P,D1,2,VSS*%
%TO.N,GND*%
X165685000Y-88095000D03*
%TO.P,D1,3,DIN*%
%TO.N,Net-(D1-DIN)*%
X169185000Y-88095000D03*
%TO.P,D1,4,VDD*%
%TO.N,+5V*%
X169185000Y-86345000D03*
%TD*%
D13*
%TO.P,SW4,1,1*%
%TO.N,GND*%
X207700000Y-94935000D03*
%TO.P,SW4,2,2*%
%TO.N,Net-(U1-GPIO1{slash}RX)*%
X201350000Y-97475000D03*
%TD*%
%TO.P,SW2,1,1*%
%TO.N,GND*%
X169227500Y-94932500D03*
%TO.P,SW2,2,2*%
%TO.N,Net-(U1-GPIO4{slash}MISO)*%
X162877500Y-97472500D03*
%TD*%
D14*
%TO.P,U1,1,GPIO26/ADC0/A0*%
%TO.N,unconnected-(U1-GPIO26{slash}ADC0{slash}A0-Pad1)*%
X193550000Y-73155000D03*
%TO.P,U1,2,GPIO27/ADC1/A1*%
%TO.N,unconnected-(U1-GPIO27{slash}ADC1{slash}A1-Pad2)*%
X193550000Y-75695000D03*
%TO.P,U1,3,GPIO28/ADC2/A2*%
%TO.N,unconnected-(U1-GPIO28{slash}ADC2{slash}A2-Pad3)*%
X193550000Y-78235000D03*
%TO.P,U1,4,GPIO29/ADC3/A3*%
%TO.N,unconnected-(U1-GPIO29{slash}ADC3{slash}A3-Pad4)*%
X193550000Y-80775000D03*
%TO.P,U1,5,GPIO6/SDA*%
%TO.N,Net-(D2-DIN)*%
X193550000Y-83315000D03*
%TO.P,U1,6,GPIO7/SCL*%
%TO.N,unconnected-(U1-GPIO7{slash}SCL-Pad6)*%
X193550000Y-85855000D03*
%TO.P,U1,7,GPIO0/TX*%
%TO.N,unconnected-(U1-GPIO0{slash}TX-Pad7)*%
X193550000Y-88395000D03*
%TO.P,U1,8,GPIO1/RX*%
%TO.N,Net-(U1-GPIO1{slash}RX)*%
X178310000Y-88395000D03*
%TO.P,U1,9,GPIO2/SCK*%
%TO.N,Net-(U1-GPIO2{slash}SCK)*%
X178310000Y-85855000D03*
%TO.P,U1,10,GPIO4/MISO*%
%TO.N,Net-(U1-GPIO4{slash}MISO)*%
X178310000Y-83315000D03*
%TO.P,U1,11,GPIO3/MOSI*%
%TO.N,Net-(U1-GPIO3{slash}MOSI)*%
X178310000Y-80775000D03*
%TO.P,U1,12,3V3*%
%TO.N,unconnected-(U1-3V3-Pad12)*%
X178310000Y-78235000D03*
%TO.P,U1,13,GND*%
%TO.N,GND1*%
X178310000Y-75695000D03*
%TO.P,U1,14,VBUS*%
%TO.N,+5V*%
X178310000Y-73155000D03*
%TD*%
D15*
%TO.N,Net-(D1-DIN)*%
X179450000Y-87225000D03*
X170675000Y-87650000D03*
%TO.N,GND*%
X167100000Y-88175000D03*
X208150000Y-86250000D03*
%TD*%
D16*
%TO.N,Net-(D1-DIN)*%
X169630000Y-87650000D02*
X169185000Y-88095000D01*
X206385000Y-88070000D02*
X203855000Y-90600000D01*
X182825000Y-90600000D02*
X179450000Y-87225000D01*
X203855000Y-90600000D02*
X182825000Y-90600000D01*
X170675000Y-87650000D02*
X169630000Y-87650000D01*
%TO.N,GND*%
X165765000Y-88175000D02*
X165685000Y-88095000D01*
X208080000Y-86320000D02*
X208150000Y-86250000D01*
X206385000Y-86320000D02*
X208080000Y-86320000D01*
X167100000Y-88175000D02*
X165765000Y-88175000D01*
%TO.N,+5V*%
X193501690Y-77150000D02*
X189506690Y-73155000D01*
X203986000Y-86969000D02*
X203986000Y-85594000D01*
X200800000Y-83500000D02*
X201346000Y-82954000D01*
X200650000Y-83500000D02*
X200800000Y-83500000D01*
X189506690Y-73155000D02*
X178310000Y-73155000D01*
X169185000Y-86345000D02*
X169185000Y-82280000D01*
X195542000Y-77150000D02*
X193501690Y-77150000D01*
X203986000Y-85594000D02*
X201346000Y-82954000D01*
X171100000Y-83250000D02*
X169657500Y-81807500D01*
X169185000Y-82280000D02*
X169657500Y-81807500D01*
X169657500Y-81807500D02*
X178310000Y-73155000D01*
X201346000Y-82954000D02*
X195542000Y-77150000D01*
X202885000Y-88070000D02*
X203986000Y-86969000D01*
%TO.N,Net-(D2-DIN)*%
X202885000Y-86320000D02*
X196555000Y-86320000D01*
X196555000Y-86320000D02*
X193550000Y-83315000D01*
%TO.N,Net-(U1-GPIO2{slash}SCK)*%
X177247000Y-86918000D02*
X178310000Y-85855000D01*
X177247000Y-92597000D02*
X177247000Y-86918000D01*
X182125000Y-97475000D02*
X177247000Y-92597000D01*
%TO.N,Net-(U1-GPIO4{slash}MISO)*%
X177035000Y-83315000D02*
X178310000Y-83315000D01*
X162877500Y-97472500D02*
X177035000Y-83315000D01*
%TO.N,Net-(U1-GPIO3{slash}MOSI)*%
X180850000Y-78235000D02*
X178310000Y-80775000D01*
X182120000Y-78235000D02*
X180850000Y-78235000D01*
%TO.N,Net-(U1-GPIO1{slash}RX)*%
X201350000Y-97475000D02*
X189025000Y-97475000D01*
X189025000Y-97475000D02*
X179945000Y-88395000D01*
X179945000Y-88395000D02*
X178310000Y-88395000D01*
%TD*%
M02*
