%TF.GenerationSoftware,KiCad,Pcbnew,9.0.2*%
%TF.CreationDate,2025-06-30T20:41:05-04:00*%
%TF.ProjectId,Hackpad,4861636b-7061-4642-9e6b-696361645f70,rev?*%
%TF.SameCoordinates,Original*%
%TF.FileFunction,Soldermask,Top*%
%TF.FilePolarity,Negative*%
%FSLAX46Y46*%
G04 Gerber Fmt 4.6, Leading zero omitted, Abs format (unit mm)*
G04 Created by KiCad (PCBNEW 9.0.2) date 2025-06-30 20:41:05*
%MOMM*%
%LPD*%
G01*
G04 APERTURE LIST*
%ADD10R,1.600000X0.850000*%
%ADD11C,1.600000*%
%ADD12O,1.600000X1.600000*%
%ADD13C,1.700000*%
%ADD14C,4.000000*%
%ADD15C,2.200000*%
%ADD16C,1.524000*%
G04 APERTURE END LIST*
D10*
%TO.C,D2*%
X206385000Y-88070000D03*
X206385000Y-86320000D03*
X202885000Y-86320000D03*
X202885000Y-88070000D03*
%TD*%
D11*
%TO.C,C1*%
X163600000Y-83250000D03*
D12*
X171100000Y-83250000D03*
%TD*%
D13*
%TO.C,SW1*%
X180855000Y-100015000D03*
D14*
X185935000Y-100015000D03*
D13*
X191015000Y-100015000D03*
D15*
X188475000Y-94935000D03*
X182125000Y-97475000D03*
%TD*%
D13*
%TO.C,SW3*%
X180850000Y-80775000D03*
D14*
X185930000Y-80775000D03*
D13*
X191010000Y-80775000D03*
D15*
X188470000Y-75695000D03*
X182120000Y-78235000D03*
%TD*%
D11*
%TO.C,C2*%
X208150000Y-83500000D03*
D12*
X200650000Y-83500000D03*
%TD*%
D10*
%TO.C,D1*%
X165685000Y-86345000D03*
X165685000Y-88095000D03*
X169185000Y-88095000D03*
X169185000Y-86345000D03*
%TD*%
D13*
%TO.C,SW4*%
X200080000Y-100015000D03*
D14*
X205160000Y-100015000D03*
D13*
X210240000Y-100015000D03*
D15*
X207700000Y-94935000D03*
X201350000Y-97475000D03*
%TD*%
D13*
%TO.C,SW2*%
X161607500Y-100012500D03*
D14*
X166687500Y-100012500D03*
D13*
X171767500Y-100012500D03*
D15*
X169227500Y-94932500D03*
X162877500Y-97472500D03*
%TD*%
D16*
%TO.C,U1*%
X193550000Y-73155000D03*
X193550000Y-75695000D03*
X193550000Y-78235000D03*
X193550000Y-80775000D03*
X193550000Y-83315000D03*
X193550000Y-85855000D03*
X193550000Y-88395000D03*
X178310000Y-88395000D03*
X178310000Y-85855000D03*
X178310000Y-83315000D03*
X178310000Y-80775000D03*
X178310000Y-78235000D03*
X178310000Y-75695000D03*
X178310000Y-73155000D03*
%TD*%
M02*
