%TF.GenerationSoftware,KiCad,Pcbnew,9.0.2*%
%TF.CreationDate,2025-06-30T20:41:04-04:00*%
%TF.ProjectId,Hackpad,4861636b-7061-4642-9e6b-696361645f70,rev?*%
%TF.SameCoordinates,Original*%
%TF.FileFunction,Copper,L2,Bot*%
%TF.FilePolarity,Positive*%
%FSLAX46Y46*%
G04 Gerber Fmt 4.6, Leading zero omitted, Abs format (unit mm)*
G04 Created by KiCad (PCBNEW 9.0.2) date 2025-06-30 20:41:04*
%MOMM*%
%LPD*%
G01*
G04 APERTURE LIST*
G04 Aperture macros list*
%AMRoundRect*
0 Rectangle with rounded corners*
0 $1 Rounding radius*
0 $2 $3 $4 $5 $6 $7 $8 $9 X,Y pos of 4 corners*
0 Add a 4 corners polygon primitive as box body*
4,1,4,$2,$3,$4,$5,$6,$7,$8,$9,$2,$3,0*
0 Add four circle primitives for the rounded corners*
1,1,$1+$1,$2,$3*
1,1,$1+$1,$4,$5*
1,1,$1+$1,$6,$7*
1,1,$1+$1,$8,$9*
0 Add four rect primitives between the rounded corners*
20,1,$1+$1,$2,$3,$4,$5,0*
20,1,$1+$1,$4,$5,$6,$7,0*
20,1,$1+$1,$6,$7,$8,$9,0*
20,1,$1+$1,$8,$9,$2,$3,0*%
G04 Aperture macros list end*
%TA.AperFunction,ComponentPad*%
%ADD10C,1.600000*%
%TD*%
%TA.AperFunction,ComponentPad*%
%ADD11O,1.600000X1.600000*%
%TD*%
%TA.AperFunction,ComponentPad*%
%ADD12C,2.200000*%
%TD*%
%TA.AperFunction,SMDPad,CuDef*%
%ADD13RoundRect,0.152400X-1.063600X-0.609600X1.063600X-0.609600X1.063600X0.609600X-1.063600X0.609600X0*%
%TD*%
%TA.AperFunction,ComponentPad*%
%ADD14C,1.524000*%
%TD*%
%TA.AperFunction,SMDPad,CuDef*%
%ADD15RoundRect,0.152400X1.063600X0.609600X-1.063600X0.609600X-1.063600X-0.609600X1.063600X-0.609600X0*%
%TD*%
%TA.AperFunction,ViaPad*%
%ADD16C,0.600000*%
%TD*%
%TA.AperFunction,Conductor*%
%ADD17C,0.200000*%
%TD*%
G04 APERTURE END LIST*
D10*
%TO.P,C1,1*%
%TO.N,GND*%
X163600000Y-83250000D03*
D11*
%TO.P,C1,2*%
%TO.N,+5V*%
X171100000Y-83250000D03*
%TD*%
D12*
%TO.P,SW1,1,1*%
%TO.N,GND*%
X188475000Y-94935000D03*
%TO.P,SW1,2,2*%
%TO.N,Net-(U1-GPIO2{slash}SCK)*%
X182125000Y-97475000D03*
%TD*%
%TO.P,SW3,1,1*%
%TO.N,GND*%
X188470000Y-75695000D03*
%TO.P,SW3,2,2*%
%TO.N,Net-(U1-GPIO3{slash}MOSI)*%
X182120000Y-78235000D03*
%TD*%
D10*
%TO.P,C2,1*%
%TO.N,GND*%
X208150000Y-83500000D03*
D11*
%TO.P,C2,2*%
%TO.N,+5V*%
X200650000Y-83500000D03*
%TD*%
D12*
%TO.P,SW4,1,1*%
%TO.N,GND*%
X207700000Y-94935000D03*
%TO.P,SW4,2,2*%
%TO.N,Net-(U1-GPIO1{slash}RX)*%
X201350000Y-97475000D03*
%TD*%
%TO.P,SW2,1,1*%
%TO.N,GND*%
X169227500Y-94932500D03*
%TO.P,SW2,2,2*%
%TO.N,Net-(U1-GPIO4{slash}MISO)*%
X162877500Y-97472500D03*
%TD*%
D13*
%TO.P,U1,1,GPIO26/ADC0/A0*%
%TO.N,unconnected-(U1-GPIO26{slash}ADC0{slash}A0-Pad1)*%
X194385000Y-73155000D03*
D14*
X193550000Y-73155000D03*
D13*
%TO.P,U1,2,GPIO27/ADC1/A1*%
%TO.N,unconnected-(U1-GPIO27{slash}ADC1{slash}A1-Pad2)*%
X194385000Y-75695000D03*
D14*
X193550000Y-75695000D03*
D13*
%TO.P,U1,3,GPIO28/ADC2/A2*%
%TO.N,unconnected-(U1-GPIO28{slash}ADC2{slash}A2-Pad3)*%
X194385000Y-78235000D03*
D14*
X193550000Y-78235000D03*
D13*
%TO.P,U1,4,GPIO29/ADC3/A3*%
%TO.N,unconnected-(U1-GPIO29{slash}ADC3{slash}A3-Pad4)*%
X194385000Y-80775000D03*
D14*
X193550000Y-80775000D03*
D13*
%TO.P,U1,5,GPIO6/SDA*%
%TO.N,Net-(D2-DIN)*%
X194385000Y-83315000D03*
D14*
X193550000Y-83315000D03*
D13*
%TO.P,U1,6,GPIO7/SCL*%
%TO.N,unconnected-(U1-GPIO7{slash}SCL-Pad6)*%
X194385000Y-85855000D03*
D14*
X193550000Y-85855000D03*
D13*
%TO.P,U1,7,GPIO0/TX*%
%TO.N,unconnected-(U1-GPIO0{slash}TX-Pad7)*%
X194385000Y-88395000D03*
D14*
X193550000Y-88395000D03*
%TO.P,U1,8,GPIO1/RX*%
%TO.N,Net-(U1-GPIO1{slash}RX)*%
X178310000Y-88395000D03*
D15*
X177475000Y-88395000D03*
D14*
%TO.P,U1,9,GPIO2/SCK*%
%TO.N,Net-(U1-GPIO2{slash}SCK)*%
X178310000Y-85855000D03*
D15*
X177475000Y-85855000D03*
D14*
%TO.P,U1,10,GPIO4/MISO*%
%TO.N,Net-(U1-GPIO4{slash}MISO)*%
X178310000Y-83315000D03*
D15*
X177475000Y-83315000D03*
D14*
%TO.P,U1,11,GPIO3/MOSI*%
%TO.N,Net-(U1-GPIO3{slash}MOSI)*%
X178310000Y-80775000D03*
D15*
X177475000Y-80775000D03*
D14*
%TO.P,U1,12,3V3*%
%TO.N,unconnected-(U1-3V3-Pad12)*%
X178310000Y-78235000D03*
D15*
X177475000Y-78235000D03*
D14*
%TO.P,U1,13,GND*%
%TO.N,GND1*%
X178310000Y-75695000D03*
D15*
X177475000Y-75695000D03*
D14*
%TO.P,U1,14,VBUS*%
%TO.N,+5V*%
X178310000Y-73155000D03*
D15*
X177475000Y-73155000D03*
%TD*%
D16*
%TO.N,Net-(D1-DIN)*%
X179450000Y-87225000D03*
X170675000Y-87650000D03*
%TO.N,GND*%
X167100000Y-88175000D03*
X208150000Y-86250000D03*
%TD*%
D17*
%TO.N,Net-(D1-DIN)*%
X179450000Y-87225000D02*
X171100000Y-87225000D01*
X171100000Y-87225000D02*
X170675000Y-87650000D01*
%TO.N,GND*%
X169227500Y-88877500D02*
X167887500Y-87537500D01*
X169227500Y-94932500D02*
X207697500Y-94932500D01*
X167250000Y-88175000D02*
X167100000Y-88175000D01*
X188470000Y-94930000D02*
X188475000Y-94935000D01*
X169227500Y-94932500D02*
X169227500Y-88877500D01*
X167887500Y-87537500D02*
X167250000Y-88175000D01*
X207697500Y-94932500D02*
X207700000Y-94935000D01*
X208150000Y-83500000D02*
X208150000Y-86250000D01*
X208150000Y-94485000D02*
X207700000Y-94935000D01*
X167887500Y-87537500D02*
X163600000Y-83250000D01*
X188470000Y-75695000D02*
X188470000Y-94930000D01*
X208150000Y-86250000D02*
X208150000Y-94485000D01*
%TD*%
M02*
