M48
; DRILL file {KiCad 9.0.2} date 2025-06-30T20:41:25-0400
; FORMAT={-:-/ absolute / metric / decimal}
; #@! TF.CreationDate,2025-06-30T20:41:25-04:00
; #@! TF.GenerationSoftware,Kicad,Pcbnew,9.0.2
; #@! TF.FileFunction,Plated,1,2,PTH
FMAT,2
METRIC
; #@! TA.AperFunction,Plated,PTH,ViaDrill
T1C0.300
; #@! TA.AperFunction,Plated,PTH,ComponentDrill
T2C0.800
; #@! TA.AperFunction,Plated,PTH,ComponentDrill
T3C0.889
; #@! TA.AperFunction,Plated,PTH,ComponentDrill
T4C1.500
%
G90
G05
T1
X167.1Y-88.175
X170.675Y-87.65
X179.45Y-87.225
X208.15Y-86.25
T2
X163.6Y-83.25
X171.1Y-83.25
X200.65Y-83.5
X208.15Y-83.5
T3
X178.31Y-73.155
X178.31Y-75.695
X178.31Y-78.235
X178.31Y-80.775
X178.31Y-83.315
X178.31Y-85.855
X178.31Y-88.395
X193.55Y-73.155
X193.55Y-75.695
X193.55Y-78.235
X193.55Y-80.775
X193.55Y-83.315
X193.55Y-85.855
X193.55Y-88.395
T4
X162.877Y-97.472
X169.227Y-94.932
X182.12Y-78.235
X182.125Y-97.475
X188.47Y-75.695
X188.475Y-94.935
X201.35Y-97.475
X207.7Y-94.935
M30
