%TF.GenerationSoftware,KiCad,Pcbnew,9.0.2*%
%TF.CreationDate,2025-06-30T20:41:05-04:00*%
%TF.ProjectId,Hackpad,4861636b-7061-4642-9e6b-696361645f70,rev?*%
%TF.SameCoordinates,Original*%
%TF.FileFunction,Legend,Top*%
%TF.FilePolarity,Positive*%
%FSLAX46Y46*%
G04 Gerber Fmt 4.6, Leading zero omitted, Abs format (unit mm)*
G04 Created by KiCad (PCBNEW 9.0.2) date 2025-06-30 20:41:05*
%MOMM*%
%LPD*%
G01*
G04 APERTURE LIST*
%ADD10C,0.120000*%
G04 APERTURE END LIST*
D10*
%TO.C,D2*%
X201835000Y-85795000D02*
X201835000Y-89195000D01*
X201835000Y-85795000D02*
X202435000Y-85195000D01*
X207435000Y-85195000D02*
X202435000Y-85195000D01*
X207435000Y-89195000D02*
X201835000Y-89195000D01*
X207435000Y-89195000D02*
X207435000Y-85195000D01*
%TO.C,C1*%
X164640000Y-83250000D02*
X165330000Y-83250000D01*
X165330000Y-81830000D02*
X165330000Y-84670000D01*
X165330000Y-84670000D02*
X169370000Y-84670000D01*
X169370000Y-81830000D02*
X165330000Y-81830000D01*
X169370000Y-84670000D02*
X169370000Y-81830000D01*
X170060000Y-83250000D02*
X169370000Y-83250000D01*
%TO.C,SW1*%
X178950000Y-93030000D02*
X192920000Y-93030000D01*
X178950000Y-107000000D02*
X178950000Y-93030000D01*
X192920000Y-93030000D02*
X192920000Y-107000000D01*
X192920000Y-107000000D02*
X178950000Y-107000000D01*
%TO.C,SW3*%
X178945000Y-73790000D02*
X192915000Y-73790000D01*
X178945000Y-87760000D02*
X178945000Y-73790000D01*
X192915000Y-73790000D02*
X192915000Y-87760000D01*
X192915000Y-87760000D02*
X178945000Y-87760000D01*
%TO.C,C2*%
X201690000Y-83500000D02*
X202380000Y-83500000D01*
X202380000Y-82080000D02*
X202380000Y-84920000D01*
X202380000Y-84920000D02*
X206420000Y-84920000D01*
X206420000Y-82080000D02*
X202380000Y-82080000D01*
X206420000Y-84920000D02*
X206420000Y-82080000D01*
X207110000Y-83500000D02*
X206420000Y-83500000D01*
%TO.C,D1*%
X164635000Y-85220000D02*
X164635000Y-89220000D01*
X164635000Y-85220000D02*
X170235000Y-85220000D01*
X164635000Y-89220000D02*
X169635000Y-89220000D01*
X170235000Y-88620000D02*
X169635000Y-89220000D01*
X170235000Y-88620000D02*
X170235000Y-85220000D01*
%TO.C,SW4*%
X198175000Y-93030000D02*
X212145000Y-93030000D01*
X198175000Y-107000000D02*
X198175000Y-93030000D01*
X212145000Y-93030000D02*
X212145000Y-107000000D01*
X212145000Y-107000000D02*
X198175000Y-107000000D01*
%TO.C,SW2*%
X159702500Y-93027500D02*
X173672500Y-93027500D01*
X159702500Y-106997500D02*
X159702500Y-93027500D01*
X173672500Y-93027500D02*
X173672500Y-106997500D01*
X173672500Y-106997500D02*
X159702500Y-106997500D01*
%TD*%
M02*
