%TF.GenerationSoftware,KiCad,Pcbnew,9.0.2*%
%TF.CreationDate,2025-06-30T20:41:05-04:00*%
%TF.ProjectId,Hackpad,4861636b-7061-4642-9e6b-696361645f70,rev?*%
%TF.SameCoordinates,Original*%
%TF.FileFunction,Soldermask,Bot*%
%TF.FilePolarity,Negative*%
%FSLAX46Y46*%
G04 Gerber Fmt 4.6, Leading zero omitted, Abs format (unit mm)*
G04 Created by KiCad (PCBNEW 9.0.2) date 2025-06-30 20:41:05*
%MOMM*%
%LPD*%
G01*
G04 APERTURE LIST*
G04 Aperture macros list*
%AMRoundRect*
0 Rectangle with rounded corners*
0 $1 Rounding radius*
0 $2 $3 $4 $5 $6 $7 $8 $9 X,Y pos of 4 corners*
0 Add a 4 corners polygon primitive as box body*
4,1,4,$2,$3,$4,$5,$6,$7,$8,$9,$2,$3,0*
0 Add four circle primitives for the rounded corners*
1,1,$1+$1,$2,$3*
1,1,$1+$1,$4,$5*
1,1,$1+$1,$6,$7*
1,1,$1+$1,$8,$9*
0 Add four rect primitives between the rounded corners*
20,1,$1+$1,$2,$3,$4,$5,0*
20,1,$1+$1,$4,$5,$6,$7,0*
20,1,$1+$1,$6,$7,$8,$9,0*
20,1,$1+$1,$8,$9,$2,$3,0*%
G04 Aperture macros list end*
%ADD10C,1.600000*%
%ADD11O,1.600000X1.600000*%
%ADD12C,1.700000*%
%ADD13C,4.000000*%
%ADD14C,2.200000*%
%ADD15RoundRect,0.152400X-1.063600X-0.609600X1.063600X-0.609600X1.063600X0.609600X-1.063600X0.609600X0*%
%ADD16C,1.524000*%
%ADD17RoundRect,0.152400X1.063600X0.609600X-1.063600X0.609600X-1.063600X-0.609600X1.063600X-0.609600X0*%
G04 APERTURE END LIST*
D10*
%TO.C,C1*%
X163600000Y-83250000D03*
D11*
X171100000Y-83250000D03*
%TD*%
D12*
%TO.C,SW1*%
X180855000Y-100015000D03*
D13*
X185935000Y-100015000D03*
D12*
X191015000Y-100015000D03*
D14*
X188475000Y-94935000D03*
X182125000Y-97475000D03*
%TD*%
D12*
%TO.C,SW3*%
X180850000Y-80775000D03*
D13*
X185930000Y-80775000D03*
D12*
X191010000Y-80775000D03*
D14*
X188470000Y-75695000D03*
X182120000Y-78235000D03*
%TD*%
D10*
%TO.C,C2*%
X208150000Y-83500000D03*
D11*
X200650000Y-83500000D03*
%TD*%
D12*
%TO.C,SW4*%
X200080000Y-100015000D03*
D13*
X205160000Y-100015000D03*
D12*
X210240000Y-100015000D03*
D14*
X207700000Y-94935000D03*
X201350000Y-97475000D03*
%TD*%
D12*
%TO.C,SW2*%
X161607500Y-100012500D03*
D13*
X166687500Y-100012500D03*
D12*
X171767500Y-100012500D03*
D14*
X169227500Y-94932500D03*
X162877500Y-97472500D03*
%TD*%
D15*
%TO.C,U1*%
X194385000Y-73155000D03*
D16*
X193550000Y-73155000D03*
D15*
X194385000Y-75695000D03*
D16*
X193550000Y-75695000D03*
D15*
X194385000Y-78235000D03*
D16*
X193550000Y-78235000D03*
D15*
X194385000Y-80775000D03*
D16*
X193550000Y-80775000D03*
D15*
X194385000Y-83315000D03*
D16*
X193550000Y-83315000D03*
D15*
X194385000Y-85855000D03*
D16*
X193550000Y-85855000D03*
D15*
X194385000Y-88395000D03*
D16*
X193550000Y-88395000D03*
X178310000Y-88395000D03*
D17*
X177475000Y-88395000D03*
D16*
X178310000Y-85855000D03*
D17*
X177475000Y-85855000D03*
D16*
X178310000Y-83315000D03*
D17*
X177475000Y-83315000D03*
D16*
X178310000Y-80775000D03*
D17*
X177475000Y-80775000D03*
D16*
X178310000Y-78235000D03*
D17*
X177475000Y-78235000D03*
D16*
X178310000Y-75695000D03*
D17*
X177475000Y-75695000D03*
D16*
X178310000Y-73155000D03*
D17*
X177475000Y-73155000D03*
%TD*%
M02*
